<mxfile host="drawio-plugin" modified="2022-09-28T16:43:10.501Z" agent="5.0 (Macintosh; Intel Mac OS X 10_15_7) AppleWebKit/537.36 (KHTML, like Gecko) Chrome/98.0.4758.102 Safari/537.36" version="15.5.4" etag="i-f-GomLNbOC7bI3HOwH" type="embed"><diagram id="pHWPfcuUHNIRXZaDgQ7I" name="Page-1"><mxGraphModel dx="1287" dy="733" grid="1" gridSize="10" guides="1" tooltips="1" connect="1" arrows="1" fold="1" page="1" pageScale="1" pageWidth="850" pageHeight="1100" math="0" shadow="0"><root><mxCell id="0"/><mxCell id="1" parent="0"/><mxCell id="2" value="start" style="ellipse;whiteSpace=wrap;html=1;" vertex="1" parent="1"><mxGeometry x="65" y="20" width="70" height="70" as="geometry"/></mxCell><mxCell id="3" value="startLottery" style="rounded=1;whiteSpace=wrap;html=1;" vertex="1" parent="1"><mxGeometry x="40" y="120" width="120" height="60" as="geometry"/></mxCell><mxCell id="4" value="Required Lottery Scheduler" style="rounded=1;whiteSpace=wrap;html=1;" vertex="1" parent="1"><mxGeometry x="390" y="120" width="120" height="60" as="geometry"/></mxCell></root></mxGraphModel></diagram></mxfile>